<svg id="Insta_Icon" data-name="Insta Icon" xmlns="http://www.w3.org/2000/svg" xmlns:xlink="http://www.w3.org/1999/xlink" width="43.445" height="43.447" viewBox="0 0 43.445 43.447">
  <defs>
    <radialGradient id="radial-gradient" cx="0.431" cy="1.139" r="1.162" gradientTransform="translate(0)" gradientUnits="objectBoundingBox">
      <stop offset="0" stop-color="#ffc658"/>
      <stop offset="0.366" stop-color="#f62b37"/>
      <stop offset="0.64" stop-color="#c82091"/>
      <stop offset="0.989" stop-color="#3542e0"/>
    </radialGradient>
    <linearGradient id="linear-gradient" x1="0.5" y1="1.622" x2="0.5" y2="-0.403" gradientUnits="objectBoundingBox">
      <stop offset="0" stop-color="#fff"/>
      <stop offset="0.033" stop-color="#e4e4e4"/>
      <stop offset="0.098" stop-color="#b4b4b4"/>
      <stop offset="0.168" stop-color="#898989"/>
      <stop offset="0.243" stop-color="#646464"/>
      <stop offset="0.323" stop-color="#454545"/>
      <stop offset="0.41" stop-color="#2b2b2b"/>
      <stop offset="0.505" stop-color="#181818"/>
      <stop offset="0.616" stop-color="#0a0a0a"/>
      <stop offset="0.753" stop-color="#020202"/>
      <stop offset="1"/>
    </linearGradient>
  </defs>
  <g id="Group_222" data-name="Group 222" transform="translate(0 0)">
    <path id="Path_28" data-name="Path 28" d="M139.6,261.714A21.724,21.724,0,1,1,120.6,242.723,21.83,21.83,0,0,1,139.6,261.714Z" transform="translate(-96.305 -242.568)" fill-rule="evenodd" fill="url(#radial-gradient)"/>
    <path id="Path_31" data-name="Path 31" d="M140.923,265.817a21.5,21.5,0,1,0-21.5,21.5A21.5,21.5,0,0,0,140.923,265.817Z" transform="translate(-97.702 -243.87)" fill-rule="evenodd" fill="url(#linear-gradient)" style="mix-blend-mode: screen;isolation: isolate"/>
  </g>
  <g id="Group_225" data-name="Group 225" transform="translate(10.286 10.292)">
    <g id="Group_223" data-name="Group 223" style="mix-blend-mode: overlay;isolation: isolate">
      <path id="Path_32" data-name="Path 32" d="M124.9,254.218a6.062,6.062,0,0,0-1.848-3.9,6.344,6.344,0,0,0-4.195-1.7,82.338,82.338,0,0,0-11.314.125,5.771,5.771,0,0,0-4.947,4.442c-.545,1.946-.437,10.917-.12,12.84a5.792,5.792,0,0,0,4.6,4.988c1.8.466,10.671.407,12.661.084a5.8,5.8,0,0,0,5.011-4.574C125.267,264.52,125.086,256.019,124.9,254.218Zm-2.1,11.429a3.873,3.873,0,0,1-3.641,3.455c-1.845.2-10.085.313-11.8-.164a3.751,3.751,0,0,1-2.844-3.232,76.607,76.607,0,0,1,0-11.542,3.867,3.867,0,0,1,3.624-3.441,80.708,80.708,0,0,1,11.26.047,3.872,3.872,0,0,1,3.448,3.647A82.335,82.335,0,0,1,122.8,265.646Zm-9.143-11.6a5.865,5.865,0,1,0,5.86,5.867A5.866,5.866,0,0,0,113.654,254.051Zm-.042,9.653a3.792,3.792,0,1,1,3.827-3.758A3.792,3.792,0,0,1,113.612,263.7Zm7.507-9.874a1.373,1.373,0,1,1-1.37-1.377A1.373,1.373,0,0,1,121.119,253.83Z" transform="translate(-102.215 -248.481)" fill="#fff"/>
    </g>
    <g id="Group_224" data-name="Group 224" opacity="0.8">
      <path id="Path_33" data-name="Path 33" d="M124.9,254.218a6.062,6.062,0,0,0-1.848-3.9,6.344,6.344,0,0,0-4.195-1.7,82.338,82.338,0,0,0-11.314.125,5.771,5.771,0,0,0-4.947,4.442c-.545,1.946-.437,10.917-.12,12.84a5.792,5.792,0,0,0,4.6,4.988c1.8.466,10.671.407,12.661.084a5.8,5.8,0,0,0,5.011-4.574C125.267,264.52,125.086,256.019,124.9,254.218Zm-2.1,11.429a3.873,3.873,0,0,1-3.641,3.455c-1.845.2-10.085.313-11.8-.164a3.751,3.751,0,0,1-2.844-3.232,76.607,76.607,0,0,1,0-11.542,3.867,3.867,0,0,1,3.624-3.441,80.708,80.708,0,0,1,11.26.047,3.872,3.872,0,0,1,3.448,3.647A82.335,82.335,0,0,1,122.8,265.646Zm-9.143-11.6a5.865,5.865,0,1,0,5.86,5.867A5.866,5.866,0,0,0,113.654,254.051Zm-.042,9.653a3.792,3.792,0,1,1,3.827-3.758A3.792,3.792,0,0,1,113.612,263.7Zm7.507-9.874a1.373,1.373,0,1,1-1.37-1.377A1.373,1.373,0,0,1,121.119,253.83Z" transform="translate(-102.215 -248.481)" fill="#fff"/>
    </g>
  </g>
</svg>
