<svg id="LinkedIn_Icon" data-name="LinkedIn Icon" xmlns="http://www.w3.org/2000/svg" width="47.042" height="47.044" viewBox="0 0 47.042 47.044">
  <path id="Path_26" data-name="Path 26" d="M164.94,376.794a23.521,23.521,0,1,1,23.522,23.522A23.522,23.522,0,0,1,164.94,376.794Z" transform="translate(-164.94 -353.272)" fill="#0073b1"/>
  <g id="Group_220" data-name="Group 220" transform="translate(11.721 10.567)">
    <path id="Path_27" data-name="Path 27" d="M196.992,374.174v9.363h-5.429V374.8c0-2.193-.783-3.69-2.748-3.69a2.966,2.966,0,0,0-2.783,1.984,3.676,3.676,0,0,0-.181,1.323v9.117h-5.427s.071-14.793,0-16.325h5.427v2.313c-.01.019-.026.037-.035.054h.035v-.054a5.394,5.394,0,0,1,4.893-2.7c3.57,0,6.249,2.332,6.249,7.345Zm-22.248-14.831a2.828,2.828,0,1,0-.071,5.641h.037a2.829,2.829,0,1,0,.035-5.641ZM172,383.537h5.425V367.212H172Zm0,0" transform="translate(-171.674 -359.343)" fill="#f1f2f2"/>
  </g>
</svg>
