<svg id="Mobile_app_development" data-name="Mobile app development" xmlns="http://www.w3.org/2000/svg" xmlns:xlink="http://www.w3.org/1999/xlink" width="745" height="827" viewBox="0 0 745 827">
  <defs>
    <linearGradient id="linear-gradient" x1="0.043" y1="0.26" x2="1.433" y2="0.128" gradientUnits="objectBoundingBox">
      <stop offset="0" stop-color="#fff"/>
      <stop offset="1" stop-color="#ffd1d1"/>
      <stop offset="1" stop-color="#ff4747"/>
      <stop offset="1" stop-color="#ff4646"/>
    </linearGradient>
    <radialGradient id="radial-gradient" cx="0.5" cy="0.5" r="0.231" gradientTransform="translate(0 -0.226) scale(1 1.452)" gradientUnits="objectBoundingBox">
      <stop offset="0" stop-color="#fff"/>
      <stop offset="0.592" stop-color="#fff"/>
      <stop offset="1" stop-color="#ededed"/>
    </radialGradient>
    <linearGradient id="linear-gradient-2" x1="0.5" y1="1" x2="0.5" y2="-0.001" gradientUnits="objectBoundingBox">
      <stop offset="0" stop-color="gray" stop-opacity="0.251"/>
      <stop offset="0.54" stop-color="gray" stop-opacity="0.122"/>
      <stop offset="1" stop-color="gray" stop-opacity="0.102"/>
    </linearGradient>
    <filter id="cardBg" x="412" y="548.6" width="333" height="278.4" filterUnits="userSpaceOnUse">
      <feOffset dy="8" input="SourceAlpha"/>
      <feGaussianBlur stdDeviation="10" result="blur"/>
      <feFlood flood-color="#ff4646" flood-opacity="0.161"/>
      <feComposite operator="in" in2="blur"/>
      <feComposite in="SourceGraphic"/>
    </filter>
  </defs>
  <rect id="Rectangle_14" data-name="Rectangle 14" width="590" height="651" rx="10" fill="url(#linear-gradient)"/>
  <rect id="Rectangle_47" data-name="Rectangle 47" width="415.366" height="735.19" rx="77.967" transform="translate(234 54)" fill="url(#radial-gradient)"/>
  <rect id="Rectangle_62" data-name="Rectangle 62" width="399.366" height="717.618" rx="77.967" transform="translate(242 62.786)" fill="#fff"/>
  <path id="Path_2026" data-name="Path 2026" d="M1132.319,149.472V736.626c0,25.594-24.228,46.336-54.115,46.336H811.681c-29.877,0-54.106-20.742-54.106-46.328V149.472c0-25.576,24.22-46.314,54.1-46.32h32.343a19.341,19.341,0,0,0,2.47,20.586c4.776,6.082,12.775,9.729,21.335,9.729h151.961c8.562,0,16.56-3.648,21.335-9.73a19.339,19.339,0,0,0,2.47-20.585h34.623c29.875,0,54.1,20.734,54.106,46.315Z" transform="translate(-502.338 -19.26)" fill="#f2f2f2"/>
  <g id="Group_119" data-name="Group 119" transform="translate(21.731 -1237.467)">
    <path id="Path_310" data-name="Path 310" d="M6.348.292l64.66-1.769c3.308,0,7.222,4.451,7.222,7.759V73.373a5.99,5.99,0,0,1-5.99,5.99H6.348c-3.308,0-8.156-3.921-8.156-7.229L.358,6.283A5.99,5.99,0,0,1,6.348.292Z" transform="translate(570.038 1433.104)" fill="#c64c4c"/>
    <rect id="Rectangle_65" data-name="Rectangle 65" width="78" height="79" rx="5" transform="translate(568.269 1431.467)" fill="#ff4646"/>
    <g id="Group_118" data-name="Group 118" transform="translate(580.916 1456.572)">
      <path id="Path_295" data-name="Path 295" d="M315.983,147.9l-.034.116,9.715,3.5-1.659,5.948L308.829,150.5l1.435-5.151,19.065-6.973-1.652,5.925Z" transform="translate(-308.829 -130.238)" fill="#fff"/>
      <path id="Path_296" data-name="Path 296" d="M322.528,165.357h-6.606l18.163-30.619h6.6Z" transform="translate(-300.045 -134.738)" fill="#fff"/>
      <path id="Path_297" data-name="Path 297" d="M337.817,147.956l.034-.116-9.612-3.523,1.652-5.927,15.08,6.973-1.437,5.151-18.966,6.973,1.652-5.925Z" transform="translate(-289.337 -130.217)" fill="#fff"/>
    </g>
  </g>
  <g id="Group_143" data-name="Group 143" transform="translate(-81 -1055)">
    <path id="Path_660" data-name="Path 660" d="M10,0,232.82-2.56C238.343-2.56,244,4.477,244,10V99a10,10,0,0,1-10,10H10c-5.523,0-12.588-5.854-12.588-11.377L0,10A10,10,0,0,1,10,0Z" transform="translate(282 1490)" fill="#ff4646" opacity="0.5"/>
    <rect id="Rectangle_64" data-name="Rectangle 64" width="244" height="109" rx="10" transform="translate(279 1487)" fill="#fff"/>
    <line id="Line_1" data-name="Line 1" x2="179" transform="translate(296.5 1532.5)" fill="none" stroke="#ff4646" stroke-width="7"/>
    <line id="Line_2" data-name="Line 2" x2="143" transform="translate(296.5 1553.5)" fill="none" stroke="#ff4646" stroke-width="7"/>
    <line id="Line_3" data-name="Line 3" x2="167" transform="translate(296.5 1571.5)" fill="none" stroke="#c64c4c" stroke-width="7"/>
  </g>
  <path id="Path_661" data-name="Path 661" d="M628.743,148.191H554.67a1.97,1.97,0,0,1-1.711-2.947h0a1.969,1.969,0,0,1,1.711-.993h74.073a1.97,1.97,0,0,1,1.711,2.947h0A1.97,1.97,0,0,1,628.743,148.191Z" transform="translate(-148.128 -52.442)" fill="rgba(112,112,112,0.5)"/>
  <circle id="Ellipse_118" data-name="Ellipse 118" cx="8" cy="8" r="8" transform="translate(508 86)" fill="rgba(112,112,112,0.5)"/>
  <g id="undraw_programming_2svr" transform="translate(274.989 195.965)">
    <path id="Path_663" data-name="Path 663" d="M393.4,316.067q-.568,1.225-1.133,2.417-.882,1.852-1.741,3.632c-.255.526-.51,1.042-.758,1.558-2.809,5.739-5.432,10.815-7.66,14.989A23.913,23.913,0,0,1,361.263,351.3l-49.534.539h-.523l-4.246.046-3.632.039-11.138.121h-.451l-5.67.062H285.9l-34.95.379-31.2.327-3.629.039-22.538.245h-.026l-14.617.157h-.157l-46.218.5-13.826.15a28.765,28.765,0,0,1-8.711-1.248,28.217,28.217,0,0,1-12.768-8.084,65.307,65.307,0,0,1-13.173-22.459q-.63-1.793-1.176-3.632c-10.064-34.019,2.2-77.908,24.285-107.279q1.388-1.842,2.822-3.593l.023-.026a90.5,90.5,0,0,1,22.515-20.251c14.372-8.79,30.3-11.266,45.957-3.887a102.8,102.8,0,0,0,37.618,9.979c1.212.078,2.424.137,3.629.173,27.512.866,53.3-9.048,83.575-15.446,1.205-.255,2.414-.506,3.632-.745,21.6-4.3,45.562-6.565,74.057-1.8a61.762,61.762,0,0,1,8.741,2.09q1.885.608,3.632,1.307c13.6,5.533,21.019,15.757,24.171,28.567q.448,1.783.774,3.629C423.931,242.016,407.563,285.726,393.4,316.067Z" transform="translate(-79.34 -172.91)" fill="#ff4646" opacity="0.1"/>
    <g id="Group_146" data-name="Group 146" transform="translate(3.571 4.489)" opacity="0.1">
      <path id="Path_664" data-name="Path 664" d="M195.778,217V383.458l-13.826.15a28.767,28.767,0,0,1-8.711-1.248V237.251h.023A90.112,90.112,0,0,1,195.778,217Z" transform="translate(-146.133 -207.064)" fill="#ff4646"/>
      <path id="Path_665" data-name="Path 665" d="M475.763,282.619H164.6q1.388-1.842,2.822-3.593V279H474.988Q475.436,280.774,475.763,282.619Z" transform="translate(-140.315 -248.813)" fill="#ff4646"/>
      <path id="Path_666" data-name="Path 666" d="M1033.332,188.79V328.261H1032.2q-.882,1.852-1.741,3.632c-.255.526-.51,1.042-.758,1.558V187.47Q1031.585,188.078,1033.332,188.79Z" transform="translate(-722.846 -187.179)" fill="#ff4646"/>
      <path id="Path_667" data-name="Path 667" d="M768.722,186.58v174.5l-3.632.039v-173.8C766.3,187.07,767.5,186.818,768.722,186.58Z" transform="translate(-544.666 -186.58)" fill="#ff4646"/>
      <path id="Path_668" data-name="Path 668" d="M501.739,235.793V395.052l-3.629.039V235.62C499.322,235.7,500.534,235.744,501.739,235.793Z" transform="translate(-364.89 -219.602)" fill="#ff4646"/>
      <path id="Path_669" data-name="Path 669" d="M399.6,618.52q-.882,1.852-1.741,3.632H91.426q-.63-1.793-1.176-3.632Z" transform="translate(-90.25 -477.435)" fill="#ff4646"/>
    </g>
    <rect id="Rectangle_66" data-name="Rectangle 66" width="6.206" height="18.834" transform="translate(69.123 86.852)" fill="#3f3d56"/>
    <rect id="Rectangle_67" data-name="Rectangle 67" width="6.206" height="19.925" transform="translate(236.139 85.872)" fill="#3f3d56"/>
    <path id="Path_670" data-name="Path 670" d="M353.36,514.459v4.246l-49.622.457-.529.01-18.86.173-.451.007-5.732.049H278l-34.943.323-57.36.532h-.049l-14.584.137-.157,0-64.8.594v-4.9l15.237-9.146,30.573-.255.653,0,.216,0,.653-.01,14.679-.121.657,0,.209,0,.653,0,4.707-.039.124,0,11.612-.1h.095l90.608-.764,2.218-.016h.222l1.692-.016,12.3-.1.653-.01.6-.007h.314l3.825-.029.758-.01,1.016-.007,3.185-.029,5.053-.042.653-.007,1.137-.007h.212l24.4-.209Z" transform="translate(-71.437 -340.128)" fill="#65617d"/>
    <path id="Path_671" data-name="Path 671" d="M353.36,514.459v4.246l-49.622.457-.529.01-18.86.173-.451.007-5.732.049H278l-34.943.323-57.36.532h-.049l-14.584.137-.157,0-64.8.594v-4.9l15.237-9.146,30.573-.255.653,0,.216,0,.653-.01,14.679-.121.657,0,.209,0,.653,0,4.707-.039.124,0,11.612-.1h.095l90.608-.764,2.218-.016h.222l1.692-.016,12.3-.1.653-.01.6-.007h.314l3.825-.029.758-.01,1.016-.007,3.185-.029,5.053-.042.653-.007,1.137-.007h.212l24.4-.209Z" transform="translate(-71.437 -340.128)" opacity="0.2"/>
    <path id="Path_672" data-name="Path 672" d="M343.677,656.57v8a2,2,0,0,1-1.143,1.81,1.96,1.96,0,0,1-.817.2l-11.4.242a1.96,1.96,0,0,1-.882-.186,2,2,0,0,1-1.166-1.819V656.57Z" transform="translate(-246.954 -498.568)" fill="#3f3d56"/>
    <path id="Path_673" data-name="Path 673" d="M343.677,656.57v8a2,2,0,0,1-1.143,1.81,1.96,1.96,0,0,1-.817.2l-11.4.242a1.96,1.96,0,0,1-.882-.186,2,2,0,0,1-1.166-1.819V656.57Z" transform="translate(-246.954 -498.568)" opacity="0.1"/>
    <path id="Path_674" data-name="Path 674" d="M345.677,656.57v8a2,2,0,0,1-1.143,1.81,1.96,1.96,0,0,1-.817.2l-11.4.242a1.96,1.96,0,0,1-.882-.186,2,2,0,0,1-1.166-1.819V656.57Z" transform="translate(-248.301 -498.568)" fill="#3f3d56"/>
    <rect id="Rectangle_68" data-name="Rectangle 68" width="15.407" height="10.289" transform="translate(222.421 158.002)" fill="#3f3d56"/>
    <rect id="Rectangle_69" data-name="Rectangle 69" width="15.407" height="10.289" transform="translate(222.421 158.002)" opacity="0.1"/>
    <rect id="Rectangle_70" data-name="Rectangle 70" width="15.407" height="10.289" transform="translate(221.767 158.002)" fill="#3f3d56"/>
    <path id="Path_675" data-name="Path 675" d="M217.806,265.82v1.872l-6.206-.16V265.82Z" transform="translate(-142.477 -178.971)" opacity="0.1"/>
    <path id="Path_676" data-name="Path 676" d="M288.429,265.654l-7.457,53.568a1.4,1.4,0,0,1-1.427,1.212l-59.708-1.548-1.133-.029a1.4,1.4,0,0,1-1.359-1.591l8.372-56.076A1.4,1.4,0,0,1,227.2,260l59.924,4.057a1.4,1.4,0,0,1,1.307,1.594Z" transform="translate(-172.252 -231.53)" fill="#65617d"/>
    <path id="Path_677" data-name="Path 677" d="M162.914,99.16,156.6,148.589l54.874,1.741,6.748-47.688Z" transform="translate(-105.442 -66.748)" fill="#ff4646"/>
    <rect id="Rectangle_71" data-name="Rectangle 71" width="66.852" height="56.615" rx="5.33" transform="translate(125.63 31.648)" fill="#65617d"/>
    <rect id="Rectangle_72" data-name="Rectangle 72" width="60.754" height="47.143" transform="translate(128.785 35.46)" fill="#ff4646"/>
    <path id="Path_678" data-name="Path 678" d="M729.136,262.82v1.238l-6.206.127V262.82Z" transform="translate(-486.791 -176.951)" opacity="0.1"/>
    <path id="Path_679" data-name="Path 679" d="M765.974,314.263a1.006,1.006,0,0,1-.98,1.071L703.848,316.6a1.006,1.006,0,0,1-1.022-.911l-5.255-54.639a1.006,1.006,0,0,1,.954-1.1l60.682-3.018.653-.033a1,1,0,0,1,1.052.915Z" transform="translate(-495.626 -229.44)" fill="#65617d"/>
    <path id="Path_680" data-name="Path 680" d="M628.93,97.544l55.42-2.724,4.681,49.648-54.982,1.307Z" transform="translate(-423.494 -63.825)" fill="#ff4646"/>
    <path id="Path_681" data-name="Path 681" d="M893.048,314.263a1.006,1.006,0,0,1-.98,1.071L886.28,256.93l.653-.033a1,1,0,0,1,1.052.915Z" transform="translate(-622.701 -229.44)" opacity="0.1"/>
    <path id="Path_682" data-name="Path 682" d="M227.209,259.992l-7.372,58.885-1.133-.029a1.4,1.4,0,0,1-1.359-1.591l8.372-56.076A1.4,1.4,0,0,1,227.209,259.992Z" transform="translate(-172.252 -231.522)" opacity="0.1"/>
    <rect id="Rectangle_73" data-name="Rectangle 73" width="6.206" height="5.579" transform="translate(69.123 100.107)" opacity="0.1"/>
    <path id="Path_683" data-name="Path 683" d="M266.337,483.65v1.623l-15.407.412V483.65Z" transform="translate(-168.961 -325.651)" opacity="0.1"/>
    <path id="Path_684" data-name="Path 684" d="M326.353,482.61v54.94a1.307,1.307,0,0,1-1.258,1.29l-62.6,1.666h-.016a1.307,1.307,0,0,1-1.29-1.29V482.61a1.307,1.307,0,0,1,1.29-1.29h62.583A1.307,1.307,0,0,1,326.353,482.61Z" transform="translate(-201.785 -380.56)" fill="#65617d"/>
    <path id="Path_685" data-name="Path 685" d="M262.5,481.32v59.186h-.016a1.307,1.307,0,0,1-1.29-1.29V482.61a1.307,1.307,0,0,1,1.29-1.29Z" transform="translate(-201.785 -380.56)" opacity="0.1"/>
    <path id="Path_686" data-name="Path 686" d="M194.6,319.15h57.977v48.423L194.6,368.88Z" transform="translate(-131.03 -214.882)" fill="#d4dfec"/>
    <rect id="Rectangle_74" data-name="Rectangle 74" width="6.206" height="5.69" transform="translate(236.139 100.107)" opacity="0.1"/>
    <path id="Path_687" data-name="Path 687" d="M694.337,483.65v2.094l-15.407-.412V483.65Z" transform="translate(-457.163 -325.651)" opacity="0.1"/>
    <path id="Path_688" data-name="Path 688" d="M733.326,482.61v56.605a1.307,1.307,0,0,1-1.307,1.29h0l-62.612-1.666a1.307,1.307,0,0,1-1.258-1.29V482.61a1.307,1.307,0,0,1,1.29-1.29h62.583A1.307,1.307,0,0,1,733.326,482.61Z" transform="translate(-475.819 -380.56)" fill="#65617d"/>
    <path id="Path_689" data-name="Path 689" d="M865,482.61v56.605a1.306,1.306,0,0,1-1.307,1.29h0V481.32h0A1.306,1.306,0,0,1,865,482.61Z" transform="translate(-607.489 -380.56)" opacity="0.1"/>
    <path id="Path_690" data-name="Path 690" d="M656.077,319.15H598.1v48.423l57.977,1.307Z" transform="translate(-402.734 -214.882)" fill="#d4dfec"/>
    <path id="Path_691" data-name="Path 691" d="M528.853,482.61v54.94a1.307,1.307,0,0,1-1.258,1.29L465,540.506h0a1.307,1.307,0,0,1-1.307-1.29V482.61a1.307,1.307,0,0,1,1.29-1.29h62.583A1.307,1.307,0,0,1,528.853,482.61Z" transform="translate(-338.142 -380.56)" fill="#65617d"/>
    <path id="Path_692" data-name="Path 692" d="M397.1,319.15h57.977v48.423L397.1,368.88Z" transform="translate(-267.387 -214.882)" fill="#d4dfec"/>
    <path id="Path_693" data-name="Path 693" d="M353.36,533.65V537.9l-49.622.457-.529.01-18.86.173-.451.007-5.732.049H278l-34.943.323-57.36.532h-.049l-14.584.137-.157,0-64.8.594v-4.9l66.146-.434h.157l13.389-.091h.062l92.463-.611h.095l.056,0h.154l1.565-.01h.477l24.331-.163,1.437-.007.32,0Z" transform="translate(-71.437 -359.319)" opacity="0.1"/>
    <circle id="Ellipse_121" data-name="Ellipse 121" cx="16.766" cy="16.766" r="16.766" transform="translate(142.396 72.154)" fill="#fbbebe"/>
    <path id="Path_694" data-name="Path 694" d="M383.74,471.158a.405.405,0,0,1,.033-.114c.327-1.173.908-3.155,1.342-4.739.055-.2.108-.389.157-.572.48-1.787,1.414-5.971,1.934-8.581.183-.918.327-1.633.356-1.992a54.369,54.369,0,0,1,2.162-5.628c.781-1.908,1.633-3.991,2.257-5.749a20.048,20.048,0,0,0,.957-3.217,1.665,1.665,0,0,0,0-.7,4.8,4.8,0,0,1-.157-1.143h0c-.075-2.025.529-5.226,1.463-6.569,1.143-1.633,1.96-7.728,1.96-7.728s1.692.245,1.96-1.153a2.008,2.008,0,0,0,.033-.457,2.425,2.425,0,0,0-.029-.363c-.291-2.038,4.808-4.207,7.676-4.674a6.418,6.418,0,0,1,.98-.091,8.9,8.9,0,0,0,2.041-.47q.457-.14.98-.327c1.2-.4,2.639-.941,4.165-1.529,5.736-2.224,12.68-5.226,12.68-5.226.049-.232.1-.454.167-.673a9.051,9.051,0,0,1,5.34-6.183h0v-.653c0-1.127-.049-2.286-.1-3.443,0-.225-.02-.451-.033-.676v-.369c0-.229-.023-.457-.036-.683l-.059-.046a5.361,5.361,0,0,1-1.274-1.372,4.988,4.988,0,0,1-.464-.98,29.943,29.943,0,0,1-.777-3.511l-.059-.242a27.442,27.442,0,0,0-1.307-3.456c-.722-1.77-1.277-3.593-1.829-5.438q-.5-1.676-1.016-3.358l-.516-1.712c-.1-.327-.2-.653-.271-.98h0a4.328,4.328,0,0,1-.085-.457h0a3.265,3.265,0,0,1,.078-1.506,10.466,10.466,0,0,1,.431-.98,2.573,2.573,0,0,0,.163-.451h0a.993.993,0,0,0,.026-.1,1.843,1.843,0,0,0,.036-.353,6.03,6.03,0,0,0-.17-1.271.023.023,0,0,1,0-.016.843.843,0,0,0-.016-.088,8.337,8.337,0,0,1-.118-.98,9.294,9.294,0,0,1,1.133-5.086l.062-.118a8.229,8.229,0,0,1,.6-.908h0a4.6,4.6,0,0,1,.327-.4,1.3,1.3,0,0,1-1.813-.47,1.248,1.248,0,0,1-.075-.147c-.016-.039-.029-.082-.042-.124a2.669,2.669,0,0,1,.692-2.3,6.039,6.039,0,0,1,1.875-1.535h0a1.259,1.259,0,0,1,.131-.069,5.593,5.593,0,0,1,.862-.346h0a4.918,4.918,0,0,1,.532-.144l-1.212-.111-.49-.046a4.733,4.733,0,0,1,4.246-3.564h.353a3.836,3.836,0,0,1,.513.043,1.45,1.45,0,0,1-.866-1.414,4.707,4.707,0,0,0,3,1h.124a9.8,9.8,0,0,1-.111-1.068h0a10.834,10.834,0,0,1,0-1.457,2.757,2.757,0,0,0,2.215.738l-.679-.947a3.1,3.1,0,0,0,2.143.67l.157-.016a2.286,2.286,0,0,0,.389-.075h.029c-.062-.078-.118-.16-.173-.245l-.02-.039a3.162,3.162,0,0,1-.327-.683,2.163,2.163,0,0,1-.078-.284h0a2.858,2.858,0,0,1,.147-1.78c1.055.882,2.211,2.087,3.593,1.176s1.427-2.584,3.593-2.414a3.332,3.332,0,0,1,2.747,2,2.2,2.2,0,0,1,2.505-.572,2.237,2.237,0,0,1,1.267,2.25,4.514,4.514,0,0,1,2.727-.108,1.592,1.592,0,0,1,.928,2.175.469.469,0,0,1-.046.065c-.4.519-1.29.8-1.2,1.457l.137.1.425.307q2.5,1.8,4.867,3.789a3.939,3.939,0,0,1,1.728,2.558,2.82,2.82,0,0,1-.078.774h0c-.052.255-.124.51-.18.764a6.371,6.371,0,0,0-.111,1.976h0c.023.193.052.382.088.575.5,2.525,2.518,4.609,2.718,7.186v.183a5.81,5.81,0,0,1-.023.826,17.632,17.632,0,0,1-1.463,4.573c-.036.091-.072.183-.1.274a45.5,45.5,0,0,0-2.286,9.2,32.747,32.747,0,0,1-.653,3.3,8.73,8.73,0,0,1-1.663,3.407,5.3,5.3,0,0,1-1.1.98,6.1,6.1,0,0,1-.866.461v.02c.036.2.065.4.1.6.02.1.036.209.056.327h0a.044.044,0,0,0,0,.02c.274,1.545.588,3.057.918,4.494l.167.715c4.116,1.486,4.6,4.53,4.632,5.7a3.131,3.131,0,0,1,0,.467s6.206.163,8.656,1.96a6.641,6.641,0,0,0,1.473.751,27.1,27.1,0,0,0,3.021.944c.526.137,1.075.271,1.633.4.98.225,2.019.444,3.021.653,2.675.539,5.193.98,6.471,1.307,3.047.771,10.018,7.454,10.018,7.454s.817,6.742,1.633,7.725a29.143,29.143,0,0,1,2.286,4.439l5.4,9.606,2.286,4.04h1.47a2.5,2.5,0,0,1,1.048.686c.389.346.82.777,1.2,1.169l.627.67.392.434s2.375.059,3.018,1.937a14.741,14.741,0,0,1,5.971.817,4.615,4.615,0,0,1,.653.353,2.835,2.835,0,0,1,1.349,1.849,2.729,2.729,0,0,1,.059.47v.555a9.108,9.108,0,0,1-3.208,5.915l.1.186s-.049.118-.144.327c-.026.062-.059.131-.095.209h0c-.193.412-.5,1.029-.9,1.751a20.681,20.681,0,0,1-3.126,4.3l-.095.1-18.86.173-.056-.065-3.658-4.364-1.819-2.169-.055-.069-.052.519-.176,1.731L491,469.773l-.023.209v.056l-.049.483.036-.483h-.095l-34.95.327L398.559,471v.274h-.046V471l-14.617.157Z" transform="translate(-284.306 -290.775)" fill="url(#linear-gradient-2)"/>
    <path id="Path_695" data-name="Path 695" d="M556.906,475.981s-32.5,3.92-29.4,0c1.124-1.418,1.434-5.618,1.372-10.4-.02-1.454-.072-2.959-.147-4.459-.359-7.186-1.225-14.208-1.225-14.208s28.417-13.392,25.151-2.776c-1.307,4.289-.879,10.312.114,15.966.291,1.65.627,3.266.98,4.8a112.6,112.6,0,0,0,3.152,11.079Z" transform="translate(-380.975 -352.765)" fill="#fbbebe"/>
    <path id="Path_696" data-name="Path 696" d="M556.906,525.63s-32.5,3.92-29.4,0c1.124-1.418,1.434-5.618,1.372-10.4,4.955-2.117,11.259-.539,11.259-.539,6.637-1.323,10.893-1.065,13.614-.137a112.6,112.6,0,0,0,3.152,11.079Z" transform="translate(-380.975 -402.414)" opacity="0.1"/>
    <path id="Path_697" data-name="Path 697" d="M398.839,584.235v-.274l57.363-.624,34.95-.327h.1l-.036.483.049-.483h.062v-.056l.447-4.393.17-1.662.052-.519.046-.434,2.019-6.732,2.019-6.722,1.7-5.66,2.593-8.649a29.023,29.023,0,0,0-2.286-4.41c-.817-.98-1.633-7.676-1.633-7.676s-6.97-6.64-10.018-7.4c-1.277-.327-3.8-.761-6.477-1.307-1-.2-2.032-.418-3.021-.653-.559-.127-1.107-.261-1.633-.4a28.711,28.711,0,0,1-3.021-.934,6.764,6.764,0,0,1-1.47-.748c-2.4-1.761-8.417-1.96-8.649-1.96h0a.136.136,0,0,1,0-.023v-.029a3.356,3.356,0,0,0,0-.412,2.619,2.619,0,0,0-.029-.457.413.413,0,0,0-.023-.163c-.016-.118-.036-.242-.065-.372a1.639,1.639,0,0,0-.039-.173,5.63,5.63,0,0,0-.408-1.14c-.023-.052-.052-.108-.078-.16a5.966,5.966,0,0,0-.555-.859c-.042-.055-.088-.114-.137-.17a6.4,6.4,0,0,0-.888-.862c-.088-.069-.18-.14-.274-.206a1.532,1.532,0,0,0-.167-.118l-.291-.189-.271-.157c-.238-.131-.49-.258-.764-.379-.085-.039-.176-.075-.268-.111l-.356-.137h-.02l-.245-.1c-.186-.062-.376-.118-.575-.173l-.3-.078-.327-.075-.327-.069c-.327-.065-.676-.124-1.042-.17l-.372-.046-.382-.039-.4-.033-.562-.033-.653-.023a40.735,40.735,0,0,0-8.575.912,23.6,23.6,0,0,0-5.961-.55h-.284l-.327.02h-.209l-.421.039a3.124,3.124,0,0,0-.425.049c-.14.02-.287.036-.428.059l-.216.036c-.212.036-.428.075-.653.121q-.108.02-.216.049c-.284.062-.568.137-.849.222-.14.039-.281.085-.421.134-.072.02-.14.046-.209.072l-.209.075-.206.082-.245.1c-.124.052-.245.108-.366.167-.069.029-.137.062-.2.1s-.134.065-.2.1a9.063,9.063,0,0,0-2.028,1.431l-.167.16-.163.167c-.056.056-.108.114-.16.173a7.782,7.782,0,0,0-.594.735c-.052.069-.1.137-.15.209a8.714,8.714,0,0,0-.562.954c-.042.078-.082.16-.121.238a10.684,10.684,0,0,0-.653,1.715q-.091.327-.167.653s-6.915,3.051-12.651,5.259c-1.525.588-2.963,1.12-4.165,1.522-.35.118-.676.225-.98.327a8.724,8.724,0,0,1-2.041.47,6.425,6.425,0,0,0-.98.091c-2.636.428-7.153,2.286-7.646,4.152a1.2,1.2,0,0,0-.033.457s0,.023,0,.036c.327,2.286-1.96,1.96-1.96,1.96s-.817,6.043-1.96,7.676a12.857,12.857,0,0,0-1.463,5.778h0a6.406,6.406,0,0,0,.144,1.839v.046a8.063,8.063,0,0,1-.715,3.165c-.578,1.682-1.421,3.773-2.231,5.745a66.938,66.938,0,0,0-2.443,6.278c-.029.265-.114.738-.232,1.349-.477,2.489-1.535,7.228-2.058,9.146-.389,1.431-.954,3.39-1.342,4.736a.458.458,0,0,1-.033.114l14.643-.144v.274h.046Z" transform="translate(-284.596 -403.737)" fill="#ff4646"/>
    <path id="Path_698" data-name="Path 698" d="M445.44,607.57s18.618,9.636,25.314,8.492Z" transform="translate(-325.853 -465.573)" opacity="0.1"/>
    <path id="Path_699" data-name="Path 699" d="M561.44,595.57s18.128,5.879,24.171,6.7S561.44,595.57,561.44,595.57Z" transform="translate(-403.964 -457.492)" opacity="0.1"/>
    <path id="Path_700" data-name="Path 700" d="M550.815,524.265c-9.472,1.744-27.306,1.369-35.015,1.1,2.825-10.126,16.6-6.683,16.6-6.683C549.456,515.283,550.763,522.345,550.815,524.265Z" transform="translate(-373.231 -405.106)" opacity="0.1"/>
    <path id="Path_701" data-name="Path 701" d="M550.815,522.265c-9.472,1.744-27.306,1.369-35.015,1.1,2.825-10.126,16.6-6.683,16.6-6.683C549.456,513.283,550.763,520.345,550.815,522.265Z" transform="translate(-373.231 -403.759)" fill="#ff4646"/>
    <path id="Path_702" data-name="Path 702" d="M776.94,671.721s11.158-1.715,11.377,3.185-5.69,8.323-5.69,8.323Z" transform="translate(-549.074 -508.574)" fill="#fbbebe"/>
    <path id="Path_703" data-name="Path 703" d="M553.165,460.1a15.36,15.36,0,0,1-1.47.568,52.5,52.5,0,0,1-10.779,2.884,17.612,17.612,0,0,1-10.831-1.8,9.4,9.4,0,0,1-.98-.637c-.359-7.186-1.225-14.209-1.225-14.209s28.417-13.392,25.151-2.776C551.731,448.423,552.172,454.446,553.165,460.1Z" transform="translate(-381.365 -352.765)" opacity="0.1"/>
    <path id="Path_704" data-name="Path 704" d="M522.489,356.095a3.093,3.093,0,0,1-2.718-.572l.679.944a2.766,2.766,0,0,1-2.215-.735,11.131,11.131,0,0,0,.1,2.531,4.742,4.742,0,0,1-3.122-.98,1.444,1.444,0,0,0,.862,1.408,4.684,4.684,0,0,0-5.1,3.5l1.705.157a6.033,6.033,0,0,0-3.41,2.081,2.642,2.642,0,0,0-.692,2.286c.229.8,1.333,1.307,1.934.738a9.126,9.126,0,0,0-1.992,7.444,4.726,4.726,0,0,1,.15,1.718,14.566,14.566,0,0,1-.617,1.532,4.839,4.839,0,0,0,.274,2.94l1.532,5.037c.555,1.819,1.107,3.642,1.832,5.4a26.822,26.822,0,0,1,1.307,3.433c.412,1.581.428,3.312,1.307,4.694a6.509,6.509,0,0,0,2.345,2.068,17.62,17.62,0,0,0,10.831,1.8,52.46,52.46,0,0,0,10.762-2.884,10.127,10.127,0,0,0,2.234-.98c2.433-1.594,2.976-4.854,3.43-7.725a43.863,43.863,0,0,1,2.381-9.407c.712-1.793,1.633-3.613,1.477-5.533-.2-2.551-2.218-4.619-2.718-7.127a6.208,6.208,0,0,1,.023-2.538,5.766,5.766,0,0,0,.258-1.535,3.917,3.917,0,0,0-1.728-2.538q-2.636-2.2-5.442-4.161c-.095-.653.794-.934,1.2-1.45.568-.728-.02-1.885-.882-2.224a4.514,4.514,0,0,0-2.727.108,2.152,2.152,0,0,0-3.773-1.669,3.332,3.332,0,0,0-2.75-1.986c-2.166-.17-2.208,1.486-3.593,2.4s-2.528-.291-3.593-1.166A3.031,3.031,0,0,0,522.489,356.095Z" transform="translate(-367.926 -293.381)" fill="#3f3d56"/>
    <path id="Path_705" data-name="Path 705" d="M736.731,638.525s-.291.693-.826,1.7a22.542,22.542,0,0,1-2.94,4.3l-.088.095h-.529l-18.86.173h-.451l-.055-.065-3.658-4.341-1.378-1.636-.056-.069-.118-.137-.065-.078-.085-.1-2.682-3.181.98-4.083,1.669-6.879.042-.167.327-1.307.232-.98.777-3.194,2.665-10.991,4.736,2.45,4.994,8.819,2.682,4.736h1.47c.278,0,.915.536,1.555,1.153.229.219.457.451.653.653.581.6,1.042,1.117,1.042,1.117s2.381.052,3.021,1.927a2.289,2.289,0,0,1,.082.278,13.168,13.168,0,0,0,.826,2.143c.421.918.951,1.96,1.486,3,1,1.911,2.009,3.73,2.381,4.39l.046.082Z" transform="translate(-500.592 -465.579)" fill="#ff4646"/>
    <path id="Path_706" data-name="Path 706" d="M522.844,649.333l-.033.467v.033l-.055.751-.435,6.046-.526,7.284-.15,2.051-.327,4.39v.056l-34.95.327-57.353.621v.274h-.046v-.366l.147-4.69.281-9.165.242-7.771.023-.774a3.439,3.439,0,0,1,3.73-3.322c1.542.131,3.544.291,5.938.461l.98.072a528.935,528.935,0,0,0,65.163.653c.542-.029,1.088-.062,1.633-.1,4-.252,7.993-.575,11.948-.98a3.439,3.439,0,0,1,3.789,3.668Z" transform="translate(-314.762 -491.135)" opacity="0.1"/>
    <path id="Path_707" data-name="Path 707" d="M429.08,674.346v-.274l57.363-.624,34.95-.327h.1v-.056l.327-4.39.14-1.96.536-7.385.421-5.847v-.144a3.466,3.466,0,0,0-.036-.807.1.1,0,0,0,0-.033,3.4,3.4,0,0,0-.653-1.516,3.443,3.443,0,0,0-3.077-1.307c-3.956.405-7.95.728-11.948.98-.546.039-1.091.072-1.633.1-25.784,1.532-51.337.291-65.163-.653l-.98-.072c-2.394-.17-4.4-.327-5.938-.461a3.443,3.443,0,0,0-3.671,2.786,3.593,3.593,0,0,0-.059.536l-.222,7.238-.3,9.169-.144,4.69v.366Z" transform="translate(-314.837 -493.849)" fill="#3f3d56"/>
    <path id="Path_708" data-name="Path 708" d="M523.036,659.4l-.4,5.007-.6,7.464-.15,1.868-.327,4.184-.02.209v.055h0l-.049.483.036-.483h-.095l-34.95.327-57.373.621v-.091l.16-4.69.327-9.165.209-6.092a2.077,2.077,0,0,1,1-1.715,2.041,2.041,0,0,1,1.235-.294c.686.055,1.529.121,2.512.193,1.6.118,3.567.255,5.86.4,4.246.268,9.574.555,15.678.79,16.985.653,39.914.872,61.694-1.035.98-.085,1.992-.18,2.982-.274a2.045,2.045,0,0,1,1.137.216,1.685,1.685,0,0,1,.281.176,2.006,2.006,0,0,1,.653.8,1.176,1.176,0,0,1,.082.2A2.052,2.052,0,0,1,523.036,659.4Z" transform="translate(-314.857 -498.91)" opacity="0.1"/>
    <path id="Path_709" data-name="Path 709" d="M345.677,677.87v1.042a2,2,0,0,1-1.143,1.81l-13.1.252a2,2,0,0,1-1.166-1.819v-.98Z" transform="translate(-248.301 -512.911)" opacity="0.1"/>
    <path id="Path_710" data-name="Path 710" d="M263.417,509.732l-17.067.327v-2.832l17.067-.327Z" transform="translate(-165.877 -341.307)" fill="#3f3d56"/>
    <path id="Path_711" data-name="Path 711" d="M263.417,509.732l-17.067.327v-2.832l17.067-.327Z" transform="translate(-165.877 -341.307)" opacity="0.1"/>
    <path id="Path_712" data-name="Path 712" d="M265.417,509.732l-17.066.327v-2.832l17.066-.327Z" transform="translate(-167.224 -341.307)" fill="#3f3d56"/>
    <g id="Group_147" data-name="Group 147" transform="translate(140.127 60.225)" opacity="0.1">
      <path id="Path_713" data-name="Path 713" d="M551.581,358.638a3.186,3.186,0,0,1-.617-1.418,3.1,3.1,0,0,0,.137,1.5A2.938,2.938,0,0,0,551.581,358.638Z" transform="translate(-537.011 -357.22)"/>
      <path id="Path_714" data-name="Path 714" d="M539.981,365.709a11.51,11.51,0,0,1-.121-1.209v1.212Z" transform="translate(-529.559 -362.122)"/>
      <path id="Path_715" data-name="Path 715" d="M621.684,395.914a5.983,5.983,0,0,1,.118-.866,5.88,5.88,0,0,0,.261-1.532,2.016,2.016,0,0,0-.052-.346c-.056.3-.144.6-.209.9A6.255,6.255,0,0,0,621.684,395.914Z" transform="translate(-584.642 -381.428)"/>
      <path id="Path_716" data-name="Path 716" d="M600.916,367.256l.356.258a6.435,6.435,0,0,0,.839-.725,1.2,1.2,0,0,0,.124-1.189.976.976,0,0,1-.124.209C601.709,366.325,600.821,366.609,600.916,367.256Z" transform="translate(-570.668 -362.863)"/>
      <path id="Path_717" data-name="Path 717" d="M518.174,380.29a4.017,4.017,0,0,0-.284.745,5.931,5.931,0,0,1,1.633-.617Z" transform="translate(-514.766 -372.755)"/>
      <path id="Path_718" data-name="Path 718" d="M531.278,368.582a4.848,4.848,0,0,1-.614-.4,1.391,1.391,0,0,0,.029.385A3.872,3.872,0,0,1,531.278,368.582Z" transform="translate(-523.365 -364.6)"/>
      <path id="Path_719" data-name="Path 719" d="M548.172,428.33a16.824,16.824,0,0,1-1.47,4.612,43.847,43.847,0,0,0-2.381,9.41c-.454,2.871-.98,6.131-3.43,7.722a9.8,9.8,0,0,1-2.231.98,52.289,52.289,0,0,1-10.779,2.884,17.611,17.611,0,0,1-10.831-1.793,6.533,6.533,0,0,1-2.345-2.068c-.872-1.382-.888-3.113-1.307-4.694a26.843,26.843,0,0,0-1.307-3.436c-.722-1.757-1.277-3.593-1.829-5.4q-.768-2.518-1.532-5.04a9.414,9.414,0,0,1-.372-1.551,5.856,5.856,0,0,0,.372,2.531q.764,2.525,1.532,5.04c.552,1.819,1.107,3.642,1.829,5.4a26.845,26.845,0,0,1,1.307,3.436c.412,1.581.428,3.312,1.307,4.694a6.533,6.533,0,0,0,2.345,2.068,17.623,17.623,0,0,0,10.831,1.793,52.68,52.68,0,0,0,10.779-2.884,9.8,9.8,0,0,0,2.231-.98c2.433-1.591,2.976-4.851,3.43-7.722a43.848,43.848,0,0,1,2.381-9.41c.712-1.79,1.633-3.609,1.476-5.533C548.179,428.369,548.172,428.35,548.172,428.33Z" transform="translate(-508.324 -405.103)"/>
      <path id="Path_720" data-name="Path 720" d="M510.03,418.615v-.036a4.572,4.572,0,0,0-.15-1.715,8.689,8.689,0,0,1-.127-1.084,8.933,8.933,0,0,0,.127,2.064C509.932,418.1,509.991,418.357,510.03,418.615Z" transform="translate(-509.277 -396.652)"/>
      <path id="Path_721" data-name="Path 721" d="M511.319,396.02a9.048,9.048,0,0,1,.852-1.2c-.6.572-1.7.062-1.934-.732a1.9,1.9,0,0,0,0,.98A1.434,1.434,0,0,0,511.319,396.02Z" transform="translate(-509.57 -382.047)"/>
    </g>
    <path id="Path_722" data-name="Path 722" d="M762.491,656.57a14.192,14.192,0,0,1,0,7.023C761.456,666.859,762.491,656.57,762.491,656.57Z" transform="translate(-539.035 -498.568)" opacity="0.1"/>
    <path id="Path_723" data-name="Path 723" d="M775.138,668.3s.434,4.769-.545,5.615S775.138,668.3,775.138,668.3Z" transform="translate(-547.273 -506.466)" opacity="0.1"/>
    <line id="Line_5" data-name="Line 5" y1="0.327" x2="33.189" transform="translate(65.004 111.686)" fill="none" stroke="#ff4646" stroke-miterlimit="10" stroke-width="2"/>
    <line id="Line_6" data-name="Line 6" y1="0.323" x2="33.189" transform="translate(65.004 115.762)" fill="none" stroke="#ff4646" stroke-miterlimit="10" stroke-width="2"/>
    <line id="Line_7" data-name="Line 7" y1="0.327" x2="33.189" transform="translate(65.004 119.835)" fill="none" stroke="#ff4646" stroke-miterlimit="10" stroke-width="2"/>
  </g>
  <g id="Group_359" data-name="Group 359" transform="translate(442 518.6)">
    <g transform="matrix(1, 0, 0, 1, -442, -518.6)" filter="url(#cardBg)">
      <rect id="cardBg-2" data-name="cardBg" width="273" height="218.4" rx="8" transform="translate(442 570.6)" fill="#fff"/>
    </g>
    <circle id="Mask" cx="18.72" cy="18.72" r="18.72" transform="translate(18.72 70.72)" fill="#ff5353" opacity="0.79"/>
    <path id="divider" d="M0,.5H235.56" transform="translate(18.72 210.23)" fill="none" stroke="#e6ebf0" stroke-linecap="square" stroke-miterlimit="10" stroke-width="1"/>
    <rect id="Rectangle_503" data-name="Rectangle 503" width="73.32" height="8.58" rx="4.29" transform="translate(70.98 76.96)" fill="#ff5353"/>
    <rect id="Rectangle_507" data-name="Rectangle 507" width="48.36" height="8.58" rx="4.29" transform="translate(70.98 91.78)" fill="#ff5353" opacity="0.3"/>
    <rect id="Rectangle_504" data-name="Rectangle 504" width="228.54" height="8.58" rx="4.29" transform="translate(18.72 137.8)" fill="#ff5353" opacity="0.2"/>
    <rect id="Rectangle_505" data-name="Rectangle 505" width="177.06" height="8.58" rx="4.29" transform="translate(18.72 154.18)" fill="#ff5353" opacity="0.2"/>
    <rect id="Rectangle_506" data-name="Rectangle 506" width="135.72" height="8.58" rx="4.29" transform="translate(18.72 170.56)" fill="#ff5353" opacity="0.2"/>
    <g id="Group_200" data-name="Group 200" transform="translate(205.14 80.08)">
      <rect id="Rectangle_6" data-name="Rectangle 6" width="49.14" height="18.72" rx="9.36" fill="#ff5353" opacity="0.3"/>
      <rect id="Rectangle_6-2" data-name="Rectangle 6" width="23.034" height="3.12" rx="1.56" transform="translate(13.053 7.8)" fill="#fff" opacity="0.3"/>
    </g>
    <g id="Group_201" data-name="Group 201" transform="translate(18.72 231.4)">
      <rect id="Rectangle_6-3" data-name="Rectangle 6" width="49.14" height="18.72" rx="9.36" transform="translate(0 0)" fill="#ff5353"/>
      <rect id="Rectangle_6-4" data-name="Rectangle 6" width="23.034" height="3.12" rx="1.56" transform="translate(13.053 7.8)" fill="#fff" opacity="0.3"/>
    </g>
    <g id="Group_202" data-name="Group 202" transform="translate(112.32 231.4)">
      <rect id="Rectangle_6-5" data-name="Rectangle 6" width="49.14" height="18.72" rx="9.36" transform="translate(0 0)" fill="#ff5353"/>
      <rect id="Rectangle_6-6" data-name="Rectangle 6" width="23.034" height="3.12" rx="1.56" transform="translate(13.053 7.8)" fill="#fff" opacity="0.3"/>
    </g>
    <g id="Group_203" data-name="Group 203" transform="translate(205.14 231.4)">
      <rect id="Rectangle_6-7" data-name="Rectangle 6" width="49.14" height="18.72" rx="9.36" transform="translate(0 0)" fill="#ff5353"/>
      <rect id="Rectangle_6-8" data-name="Rectangle 6" width="23.034" height="3.12" rx="1.56" transform="translate(13.053 7.8)" fill="#fff" opacity="0.3"/>
    </g>
  </g>
</svg>
